<?xml version="1.0" encoding="UTF-8"?>
<svg width="208px" height="188px" viewBox="0 0 208 188" version="1.1" xmlns="http://www.w3.org/2000/svg" xmlns:xlink="http://www.w3.org/1999/xlink">
    <title>logo-sdk-dark</title>
    <g id="logo-sdk-dark" stroke="none" stroke-width="1" fill="none" fill-rule="evenodd">
        <path d="M77.6351328,180.28125 C79.7445078,180.28125 81.458375,179.666016 82.7767344,178.435547 C84.0950938,177.205078 84.7542735,175.605469 84.7542735,173.636719 C84.7542735,170.871094 83.2542735,168.597656 80.2542735,166.816406 L80.2542735,166.816406 L77.5648203,165.234375 C76.3577891,164.53125 75.4847422,163.857422 74.9456797,163.212891 C74.4066172,162.568359 74.137086,161.876953 74.137086,161.138672 C74.137086,160.306641 74.5062266,159.624023 75.2445078,159.09082 C75.9827891,158.557617 76.9261485,158.291016 78.074586,158.291016 C80.1136485,158.291016 82.0179453,159.140625 83.7874766,160.839844 L83.7874766,160.839844 L83.7874766,156.849609 C82.0765391,155.701172 80.1956797,155.126953 78.1448985,155.126953 C76.0003672,155.126953 74.2572031,155.730469 72.9154063,156.9375 C71.5736094,158.144531 70.902711,159.714844 70.902711,161.648438 C70.902711,162.9375 71.2572031,164.077148 71.9661875,165.067383 C72.6751719,166.057617 73.8675547,167.0625 75.543336,168.082031 L75.543336,168.082031 L78.215211,169.699219 C80.371461,171.035156 81.449586,172.453125 81.449586,173.953125 C81.449586,174.878906 81.083375,175.649414 80.3509531,176.264648 C79.6185313,176.879883 78.7015391,177.1875 77.5999766,177.1875 C75.1038828,177.1875 72.9066172,175.986328 71.0081797,173.583984 L71.0081797,173.583984 L71.0081797,178.048828 C73.0003672,179.537109 75.2093516,180.28125 77.6351328,180.28125 Z M97.4875003,179.964205 C99.4611162,179.957393 100.811895,179.896082 101.539836,179.780273 C102.313273,179.657227 103.162883,179.414062 104.088664,179.050781 C105.670695,178.453125 107.059367,177.568359 108.25468,176.396484 C109.426555,175.259766 110.328898,173.941406 110.961711,172.441406 C111.594523,170.941406 111.91093,169.371094 111.91093,167.730469 C111.91093,165.433594 111.336711,163.3125 110.188273,161.367188 C109.039836,159.421875 107.492961,157.948242 105.547648,156.946289 C103.602336,155.944336 100.959758,155.443359 97.6199141,155.443359 L97.6199141,155.443359 L89.3406172,155.443359 L89.3406172,179.964844 L97.4875003,179.964205 Z M97.3562422,176.835938 L92.8562422,176.835938 L92.8562422,158.572266 L97.2507734,158.572266 C98.9382734,158.572266 100.162883,158.636719 100.924602,158.765625 C101.68632,158.894531 102.491984,159.158203 103.341594,159.556641 C104.191203,159.955078 104.944133,160.464844 105.600383,161.085938 C107.381633,162.75 108.272258,164.900391 108.272258,167.537109 C108.272258,170.220703 107.40507,172.441406 105.670695,174.199219 C105.131633,174.738281 104.536906,175.192383 103.886516,175.561523 C103.236125,175.930664 102.424602,176.235352 101.451945,176.475586 C100.479289,176.71582 99.1140547,176.835938 97.3562422,176.835938 L97.3562422,176.835938 Z M120.540242,180 L120.540242,167.871094 L133.073445,180 L137.889852,180 L124.618367,167.080078 L135.270711,155.443359 L130.87618,155.443359 L120.540242,166.675781 L120.540242,155.443359 L117.024617,155.443359 L117.024617,180 L120.540242,180 Z" id="SDK" fill="#FFFFFF" fill-rule="nonzero"></path>
        <g id="Group" transform="translate(0.000000, 8.000000)" fill="#FFFFFF" fill-rule="nonzero">
            <g id="sonos">
                <path d="M94.3527555,14.1102314 L94.3527555,38.1419893 L88.7966796,38.1419893 L88.7966796,0.539544423 L113.660001,25.6354878 L113.660001,1.47499954 L119.219104,1.47499954 L119.219104,39.2148144 L94.3527555,14.1102314 Z M151.948019,0 C141.070667,0 132.224576,8.91241854 132.224576,19.8756675 C132.224576,30.8337326 141.070667,39.7455032 151.948019,39.7455032 C162.822127,39.7455032 171.672326,30.8337326 171.672326,19.8756675 C171.672326,8.91241854 162.822127,0 151.948019,0 Z M151.948019,34.1014538 C144.23831,34.1014538 137.960968,27.7182848 137.960968,19.8756675 C137.960968,12.0319702 144.23831,5.64988111 151.948019,5.64988111 C159.660971,5.64988111 165.931394,12.0319702 165.931394,19.8756675 C165.931394,27.7185007 159.660971,34.1014538 151.948019,34.1014538 Z M56.0491704,0 C45.1720349,0 36.3255114,8.91241854 36.3255114,19.8756675 C36.3255114,30.8337326 45.1720349,39.7455032 56.0491704,39.7455032 C66.9284679,39.7455032 75.7726131,30.8337326 75.7726131,19.8756675 C75.7726131,8.91241854 66.9286841,0 56.0491704,0 Z M56.0491704,34.1014538 C48.3362178,34.1014538 42.0666602,27.7182848 42.0666602,19.8756675 C42.0666602,12.0319702 48.3362178,5.64988111 56.0491704,5.64988111 C63.7595284,5.64988111 70.0355722,12.0319702 70.0355722,19.8756675 C70.0355722,27.7185007 63.7595284,34.1014538 56.0491704,34.1014538 Z M12.1319983,22.6675615 L12.1095128,22.6580579 C8.39594904,21.4696778 5.91022231,20.298577 4.03744115,18.856192 C1.36037163,16.8014738 0,14.1793484 0,11.0643325 C0,8.14716398 1.3463182,5.30429621 3.6923755,3.24893003 C6.08924133,1.15230965 9.39201262,0 12.9892572,0 C20.5190828,0 24.8220256,5.05525909 25.0025581,5.27211362 L20.4336812,8.3823777 C19.3755664,7.58580451 16.5953663,5.79761865 12.989041,5.79761865 C8.45972997,5.79761865 5.75239153,8.47503765 5.75239153,11.0643325 C5.75239153,12.8706616 6.73548272,14.8569108 13.8488945,17.1379871 L13.8763527,17.1425229 C17.5801872,18.3274471 20.0749946,19.5020038 21.9456137,20.9402849 C24.6252777,22.999539 25.9837034,25.6216644 25.9837034,28.7371122 C25.9837034,31.6540648 24.6369528,34.5014683 22.2859228,36.5525147 C19.8942459,38.6450313 16.5925556,39.7969089 12.9914193,39.7969089 C5.46397198,39.7969089 1.16059677,34.7464016 0.980496714,34.5284672 L5.55304908,31.4184191 C6.6096505,32.2165042 9.38985056,34.0040421 12.9912031,34.0040421 C17.52246,34.0040421 20.2319605,31.3320228 20.2319605,28.7371122 C20.2326091,26.9307832 19.2521124,24.944102 12.1319983,22.6675615 Z M194.14916,22.6675615 L194.124512,22.6580579 C190.413759,21.4696778 187.925438,20.298577 186.056332,18.855976 C183.380992,16.8008258 182.014783,14.1787004 182.014783,11.0636845 C182.014783,8.14651601 183.364777,5.30386423 185.712564,3.24849805 C188.101214,1.15230965 191.400742,0 195.007716,0 C202.537109,0 206.84243,5.05525909 207.025341,5.27211362 L202.450626,8.3823777 C201.39489,7.58580451 198.61469,5.79761865 195.007716,5.79761865 C190.474729,5.79761865 187.766526,8.47503765 187.766526,11.0643325 C187.766526,12.8706616 188.750914,14.8569108 195.869731,17.1379871 L195.897406,17.1425229 C199.605564,18.3274471 202.091724,19.5020038 203.965586,20.9402849 C206.637899,22.999539 208,25.6216644 208,28.7371122 C208,31.6540648 206.654114,34.5014683 204.310003,36.5525147 C201.91465,38.6450313 198.612095,39.7969089 195.008581,39.7969089 C187.480917,39.7969089 183.181001,34.7464016 182.999172,34.5284672 L187.569346,31.4184191 C188.628974,32.2165042 191.401391,34.0040421 195.008581,34.0040421 C199.544378,34.0040421 202.246311,31.3320228 202.246311,28.7371122 C202.245446,26.9307832 201.265815,24.944102 194.14916,22.6675615 L194.14916,22.6675615 Z" id="Shape"></path>
            </g>
        </g>
        <g id="open-box" transform="translate(59.000000, 56.000000)" fill="#FFFFFF" fill-rule="nonzero">
            <path d="M79.6565102,30.1151348 L89.6145463,20.0466602 C89.9092487,19.7484219 90.0467647,19.3286133 89.985804,18.9134258 C89.9246661,18.4980605 89.67214,18.1358379 89.3042493,17.9358867 L56.6094684,0.162804688 C56.0921885,-0.118193359 55.4522784,-0.0252382813 55.0363635,0.392082031 L44.9992912,10.4587793 L34.9629277,0.392792969 C34.7130597,0.140410156 34.3781303,0 34.0254798,0 C33.8039656,0 33.5859957,0.0566972656 33.3910632,0.163515625 L22.8896972,5.87021094 C22.5778053,6.04083594 22.3509748,6.32165625 22.2499644,6.66290625 C22.1489539,7.00415625 22.1861683,7.36495703 22.354519,7.67776953 C22.588438,8.10788672 23.0367826,8.37644336 23.5241138,8.37644336 C23.7438558,8.37644336 23.9635979,8.31956836 24.1567582,8.21470508 L33.7844724,2.98060547 L42.7990353,12.0217754 L12.459393,28.468959 L3.52103092,19.431166 L19.4821007,10.7545293 C19.7957647,10.5856816 20.0225952,10.3048613 20.1236057,9.96361133 C20.2246161,9.62236133 20.1874017,9.26156055 20.0172789,8.94874805 C19.785132,8.51863086 19.3367874,8.25025195 18.8494562,8.25025195 C18.6297142,8.25025195 18.4117442,8.30694922 18.2168118,8.4118125 L0.696282376,17.9365977 C0.329454931,18.1337051 0.074270621,18.5000156 0.0140187701,18.9141367 C-0.0462330808,19.3263027 0.092168965,19.7493105 0.386162555,20.0463047 L10.3431353,30.1154902 L0.38545371,40.1837871 C0.0907512744,40.4820254 -0.0467647148,40.901834 0.0141959814,41.3170215 C0.075333889,41.7323867 0.327860029,42.0946094 0.695750742,42.2945605 L10.8877057,47.8348965 L10.8877057,71.8901777 C10.8875285,71.9362109 10.8898323,71.9820664 10.8944398,72.0273887 C10.8963891,72.0467617 10.9001105,72.0656016 10.9027687,72.0847969 C10.9061357,72.1080801 10.9087939,72.1313633 10.9134014,72.154291 C10.9190722,72.1832617 10.9268695,72.2113437 10.9343123,72.2396035 C10.9378566,72.2525781 10.9405147,72.2657305 10.9444134,72.2787051 C10.9530967,72.3073203 10.9635522,72.3352246 10.9740077,72.3633066 C10.9786152,72.375748 10.9825138,72.3883672 10.9876529,72.4006309 C10.9979312,72.4258691 11.0098044,72.4498633 11.0215003,72.4740352 C11.028766,72.4891426 11.0353228,72.50425 11.0431201,72.519002 C11.0537528,72.5389082 11.0656259,72.5579258 11.0769674,72.5771211 C11.0879545,72.5954277 11.09841,72.6139121 11.110106,72.6318633 C11.1198526,72.6466152 11.1308397,72.6606563 11.1412952,72.6750527 C11.1563581,72.6958477 11.1712439,72.716998 11.1875473,72.7372598 C11.1965851,72.748457 11.2066861,72.7587656 11.2160783,72.7696074 C11.2348627,72.791291 11.2536471,72.8129746 11.2738492,72.8334141 C11.2843047,72.8439004 11.2958234,72.853498 11.3066333,72.8639844 C11.3268354,72.883002 11.3466831,72.9021973 11.3681257,72.9199707 C11.3888594,72.9372109 11.4108336,72.9528516 11.4324534,72.9686699 C11.4452126,72.9780898 11.4570857,72.988043 11.4701994,72.9971074 C11.5082998,73.0228789 11.5478179,73.046873 11.5885765,73.0689121 L44.3611532,90.8363066 C44.4082914,90.8622559 44.4575561,90.8846504 44.5080614,90.9049121 C44.5190485,90.9091777 44.5302128,90.9130879 44.5413771,90.916998 C44.578237,90.9306836 44.6156286,90.9427695 44.6540835,90.9529004 C44.667906,90.9566328 44.6815512,90.9603652 44.6953737,90.9635645 C44.7325881,90.9722734 44.7703341,90.9792051 44.8086118,90.9847148 C44.8217254,90.9864922 44.8344846,90.9889805 44.8475983,90.9905801 C44.8975719,90.9962676 44.9482543,91 44.9998228,91 C45.0513913,91 45.1020737,90.9962676 45.1520473,90.9905801 C45.165161,90.9889805 45.1780974,90.9864922 45.191211,90.9847148 C45.2294887,90.9792051 45.2672347,90.9722734 45.3042718,90.9635645 C45.3180943,90.9603652 45.3319168,90.9566328 45.3455621,90.9529004 C45.3838397,90.9425918 45.4214085,90.9306836 45.4580913,90.916998 C45.4692556,90.9130879 45.4804199,90.9091777 45.491407,90.9049121 C45.541735,90.8846504 45.5909998,90.8622559 45.638138,90.8363066 L78.4107146,73.0689121 C78.4514732,73.046873 78.4909913,73.0228789 78.5290918,72.9971074 C78.5422054,72.988043 78.5542558,72.9779121 78.5668378,72.9686699 C78.5886348,72.9526738 78.610609,72.9370332 78.6311655,72.9199707 C78.6526081,72.9021973 78.6724557,72.883002 78.6926578,72.8639844 C78.7034677,72.853498 78.7149865,72.8440781 78.7254419,72.8334141 C78.745644,72.8129746 78.7644284,72.791291 78.7832128,72.7696074 C78.792605,72.7587656 78.8027061,72.748457 78.8117438,72.7372598 C78.8280473,72.7171758 78.842933,72.6960254 78.857996,72.6750527 C78.8684515,72.6606563 78.8794386,72.6466152 78.8891852,72.6318633 C78.9008811,72.6139121 78.9113366,72.5956055 78.9223237,72.5771211 C78.9338424,72.5579258 78.9457156,72.5389082 78.9561711,72.519002 C78.9639684,72.50425 78.9705252,72.4891426 78.9777909,72.4740352 C78.9894868,72.4498633 79.00136,72.4258691 79.0116382,72.4006309 C79.0167773,72.3883672 79.020676,72.375748 79.0252835,72.3633066 C79.035739,72.3354023 79.0461944,72.307498 79.0548778,72.2787051 C79.0587764,72.2659082 79.0614346,72.2527559 79.0649788,72.2396035 C79.0724217,72.2113437 79.080219,72.1832617 79.0858898,72.154291 C79.0904973,72.1313633 79.0931554,72.1080801 79.0965224,72.0847969 C79.0991806,72.0656016 79.1030793,72.0467617 79.1048514,72.0273887 C79.1094589,71.9818887 79.1117626,71.9360332 79.1115854,71.8901777 L79.1115854,47.8348965 L89.3030088,42.2947383 C89.6698362,42.0956758 89.9250205,41.729543 89.9852724,41.3171992 C90.0455242,40.9030781 89.9072994,40.4800703 89.6149007,40.1832539 L79.6565102,30.1151348 Z M56.2146416,2.9807832 L86.4782602,19.4320547 L77.5400754,28.4694922 L47.2007875,12.0212422 L56.2146416,2.9807832 Z M12.844296,45.8663105 L3.52156255,40.7983926 L12.4597474,31.7609551 L42.7992125,48.2092051 L33.7851812,57.2496641 L12.8556375,45.8723535 C12.8519161,45.8702207 12.8481947,45.8682656 12.844296,45.8663105 Z M43.6709151,87.4312715 L13.5456984,71.099082 L13.5456984,49.279877 L33.3905316,60.0676426 C33.5898943,60.1758828 33.8075098,60.2286699 34.0233532,60.2286699 C34.3676748,60.2286699 34.7079206,60.0946582 34.9636365,59.8383652 L43.6709151,51.1053867 L43.6709151,87.4312715 Z M45,46.3717871 L15.0146031,30.1154902 L45.0007088,13.8590156 L74.9861057,30.1153125 L45,46.3717871 Z M77.1608431,45.8636445 C77.1535775,45.867377 77.146489,45.8712871 77.1394006,45.8751973 L70.5178993,49.4748516 C70.2042353,49.6436992 69.9774048,49.9262969 69.8763943,50.2675469 C69.7753839,50.6089746 69.8125983,50.9695977 69.980949,51.2825879 C70.214868,51.7127051 70.6632126,51.9793066 71.1505438,51.9793066 C71.3702858,51.9793066 71.5900279,51.9240312 71.7831882,51.8193457 L76.4541244,49.2800547 L76.4541244,71.0994375 L46.3290849,87.4314492 L46.3290849,51.1046758 L55.0370723,59.8383652 C55.2888896,60.090748 55.6218697,60.2293809 55.9762923,60.2293809 C56.1960344,60.2293809 56.4140043,60.1725059 56.6089368,60.0676426 L67.1103028,54.3589922 C67.4221947,54.1901445 67.6490252,53.9075469 67.7500356,53.5662969 C67.8510461,53.2250469 67.8138317,52.8660234 67.645481,52.5532109 C67.411562,52.1213164 66.9632174,51.8547148 66.4741141,51.8547148 C66.2561442,51.8547148 66.0364021,51.9098125 65.8432418,52.0164531 L56.2155276,57.2485977 L47.2009647,48.2093828 L77.5407842,31.7602441 L86.4791463,40.7980371 L77.1608431,45.8636445 Z" id="Shape"></path>
        </g>
    </g>
</svg>