<?xml version="1.0" encoding="UTF-8"?>
<svg width="208px" height="40px" viewBox="0 0 208 40" version="1.1" xmlns="http://www.w3.org/2000/svg" xmlns:xlink="http://www.w3.org/1999/xlink">
    <title>logo-sonos-dark</title>
    <g id="logo-sonos-dark" stroke="none" stroke-width="1" fill="none" fill-rule="evenodd">
        <g id="sonos" fill="#FFFFFF" fill-rule="nonzero">
            <path d="M94.3527555,14.1102314 L94.3527555,38.1419893 L88.7966796,38.1419893 L88.7966796,0.539544423 L113.660001,25.6354878 L113.660001,1.47499954 L119.219104,1.47499954 L119.219104,39.2148144 L94.3527555,14.1102314 Z M151.948019,0 C141.070667,0 132.224576,8.91241854 132.224576,19.8756675 C132.224576,30.8337326 141.070667,39.7455032 151.948019,39.7455032 C162.822127,39.7455032 171.672326,30.8337326 171.672326,19.8756675 C171.672326,8.91241854 162.822127,0 151.948019,0 Z M151.948019,34.1014538 C144.23831,34.1014538 137.960968,27.7182848 137.960968,19.8756675 C137.960968,12.0319702 144.23831,5.64988111 151.948019,5.64988111 C159.660971,5.64988111 165.931394,12.0319702 165.931394,19.8756675 C165.931394,27.7185007 159.660971,34.1014538 151.948019,34.1014538 Z M56.0491704,0 C45.1720349,0 36.3255114,8.91241854 36.3255114,19.8756675 C36.3255114,30.8337326 45.1720349,39.7455032 56.0491704,39.7455032 C66.9284679,39.7455032 75.7726131,30.8337326 75.7726131,19.8756675 C75.7726131,8.91241854 66.9286841,0 56.0491704,0 Z M56.0491704,34.1014538 C48.3362178,34.1014538 42.0666602,27.7182848 42.0666602,19.8756675 C42.0666602,12.0319702 48.3362178,5.64988111 56.0491704,5.64988111 C63.7595284,5.64988111 70.0355722,12.0319702 70.0355722,19.8756675 C70.0355722,27.7185007 63.7595284,34.1014538 56.0491704,34.1014538 Z M12.1319983,22.6675615 L12.1095128,22.6580579 C8.39594904,21.4696778 5.91022231,20.298577 4.03744115,18.856192 C1.36037163,16.8014738 0,14.1793484 0,11.0643325 C0,8.14716398 1.3463182,5.30429621 3.6923755,3.24893003 C6.08924133,1.15230965 9.39201262,0 12.9892572,0 C20.5190828,0 24.8220256,5.05525909 25.0025581,5.27211362 L20.4336812,8.3823777 C19.3755664,7.58580451 16.5953663,5.79761865 12.989041,5.79761865 C8.45972997,5.79761865 5.75239153,8.47503765 5.75239153,11.0643325 C5.75239153,12.8706616 6.73548272,14.8569108 13.8488945,17.1379871 L13.8763527,17.1425229 C17.5801872,18.3274471 20.0749946,19.5020038 21.9456137,20.9402849 C24.6252777,22.999539 25.9837034,25.6216644 25.9837034,28.7371122 C25.9837034,31.6540648 24.6369528,34.5014683 22.2859228,36.5525147 C19.8942459,38.6450313 16.5925556,39.7969089 12.9914193,39.7969089 C5.46397198,39.7969089 1.16059677,34.7464016 0.980496714,34.5284672 L5.55304908,31.4184191 C6.6096505,32.2165042 9.38985056,34.0040421 12.9912031,34.0040421 C17.52246,34.0040421 20.2319605,31.3320228 20.2319605,28.7371122 C20.2326091,26.9307832 19.2521124,24.944102 12.1319983,22.6675615 Z M194.14916,22.6675615 L194.124512,22.6580579 C190.413759,21.4696778 187.925438,20.298577 186.056332,18.855976 C183.380992,16.8008258 182.014783,14.1787004 182.014783,11.0636845 C182.014783,8.14651601 183.364777,5.30386423 185.712564,3.24849805 C188.101214,1.15230965 191.400742,0 195.007716,0 C202.537109,0 206.84243,5.05525909 207.025341,5.27211362 L202.450626,8.3823777 C201.39489,7.58580451 198.61469,5.79761865 195.007716,5.79761865 C190.474729,5.79761865 187.766526,8.47503765 187.766526,11.0643325 C187.766526,12.8706616 188.750914,14.8569108 195.869731,17.1379871 L195.897406,17.1425229 C199.605564,18.3274471 202.091724,19.5020038 203.965586,20.9402849 C206.637899,22.999539 208,25.6216644 208,28.7371122 C208,31.6540648 206.654114,34.5014683 204.310003,36.5525147 C201.91465,38.6450313 198.612095,39.7969089 195.008581,39.7969089 C187.480917,39.7969089 183.181001,34.7464016 182.999172,34.5284672 L187.569346,31.4184191 C188.628974,32.2165042 191.401391,34.0040421 195.008581,34.0040421 C199.544378,34.0040421 202.246311,31.3320228 202.246311,28.7371122 C202.245446,26.9307832 201.265815,24.944102 194.14916,22.6675615 L194.14916,22.6675615 Z" id="Shape"></path>
        </g>
    </g>
</svg>