<?xml version="1.0" encoding="UTF-8"?>
<svg width="208px" height="40px" viewBox="0 0 208 40" version="1.1" xmlns="http://www.w3.org/2000/svg" xmlns:xlink="http://www.w3.org/1999/xlink">
    <title>logo-sonos-light</title>
    <g id="logo-sonos-light" stroke="none" stroke-width="1" fill="none" fill-rule="evenodd">
        <g id="sonos" fill="#222222" fill-rule="nonzero">
            <path d="M94.3527555,14.1765112 L94.3527555,38.3211531 L88.7966796,38.3211531 L88.7966796,0.542078817 L113.660001,25.755905 L113.660001,1.48192804 L119.219104,1.48192804 L119.219104,39.3990176 L94.3527555,14.1765112 Z M151.948019,0 C141.070667,0 132.224576,8.95428272 132.224576,19.9690292 C132.224576,30.9785675 141.070667,39.9321992 151.948019,39.9321992 C162.822127,39.9321992 171.672326,30.9785675 171.672326,19.9690292 C171.672326,8.95428272 162.822127,0 151.948019,0 Z M151.948019,34.2616381 C144.23831,34.2616381 137.960968,27.8484855 137.960968,19.9690292 C137.960968,12.0884878 144.23831,5.67642022 151.948019,5.67642022 C159.660971,5.67642022 165.931394,12.0884878 165.931394,19.9690292 C165.931394,27.8487025 159.660971,34.2616381 151.948019,34.2616381 Z M56.0491704,0 C45.1720349,0 36.3255114,8.95428272 36.3255114,19.9690292 C36.3255114,30.9785675 45.1720349,39.9321992 56.0491704,39.9321992 C66.9284679,39.9321992 75.7726131,30.9785675 75.7726131,19.9690292 C75.7726131,8.95428272 66.9286841,0 56.0491704,0 Z M56.0491704,34.2616381 C48.3362178,34.2616381 42.0666602,27.8484855 42.0666602,19.9690292 C42.0666602,12.0884878 48.3362178,5.67642022 56.0491704,5.67642022 C63.7595284,5.67642022 70.0355722,12.0884878 70.0355722,19.9690292 C70.0355722,27.8487025 63.7595284,34.2616381 56.0491704,34.2616381 Z M12.1319983,22.7740375 L12.1095128,22.7644893 C8.39594904,21.570527 5.91022231,20.3939252 4.03744115,18.9447649 C1.36037163,16.8803951 0,14.2459528 0,11.1163048 C0,8.18543354 1.3463182,5.32921201 3.6923755,3.26419118 C6.08924133,1.15772237 9.39201262,0 12.9892572,0 C20.5190828,0 24.8220256,5.07900509 25.0025581,5.29687824 L20.4336812,8.42175213 C19.3755664,7.62143721 16.5953663,5.82485173 12.989041,5.82485173 C8.45972997,5.82485173 5.75239153,8.51484733 5.75239153,11.1163048 C5.75239153,12.9311187 6.73548272,14.9266979 13.8488945,17.2184891 L13.8763527,17.2230462 C17.5801872,18.4135364 20.0749946,19.5936103 21.9456137,21.0386474 C24.6252777,23.1075744 25.9837034,25.7420167 25.9837034,28.8720987 C25.9837034,31.802753 24.6369528,34.6635316 22.2859228,36.7242123 C19.8942459,38.826558 16.5925556,39.9838464 12.9914193,39.9838464 C5.46397198,39.9838464 1.16059677,34.9096154 0.980496714,34.6906572 L5.55304908,31.5660004 C6.6096505,32.3678343 9.38985056,34.1637688 12.9912031,34.1637688 C17.52246,34.1637688 20.2319605,31.4791983 20.2319605,28.8720987 C20.2326091,27.0572848 19.2521124,25.0612716 12.1319983,22.7740375 Z M194.14916,22.7740375 L194.124512,22.7644893 C190.413759,21.570527 187.925438,20.3939252 186.056332,18.9445479 C183.380992,16.8797441 182.014783,14.2453018 182.014783,11.1156538 C182.014783,8.18478253 183.364777,5.328778 185.712564,3.26375717 C188.101214,1.15772237 191.400742,0 195.007716,0 C202.537109,0 206.84243,5.07900509 207.025341,5.29687824 L202.450626,8.42175213 C201.39489,7.62143721 198.61469,5.82485173 195.007716,5.82485173 C190.474729,5.82485173 187.766526,8.51484733 187.766526,11.1163048 C187.766526,12.9311187 188.750914,14.9266979 195.869731,17.2184891 L195.897406,17.2230462 C199.605564,18.4135364 202.091724,19.5936103 203.965586,21.0386474 C206.637899,23.1075744 208,25.7420167 208,28.8720987 C208,31.802753 206.654114,34.6635316 204.310003,36.7242123 C201.91465,38.826558 198.612095,39.9838464 195.008581,39.9838464 C187.480917,39.9838464 183.181001,34.9096154 182.999172,34.6906572 L187.569346,31.5660004 C188.628974,32.3678343 191.401391,34.1637688 195.008581,34.1637688 C199.544378,34.1637688 202.246311,31.4791983 202.246311,28.8720987 C202.245446,27.0572848 201.265815,25.0612716 194.14916,22.7740375 L194.14916,22.7740375 Z" id="Shape"></path>
        </g>
    </g>
</svg>